<svg xmlns="http://www.w3.org/2000/svg" width="41" height="41" viewBox="0 0 41 41">
  <path id="Path_1" data-name="Path 1" d="M21,2a1.7,1.7,0,0,0-1.293.625L1.369,21.154A1.11,1.11,0,0,0,1,22a.989.989,0,0,0,.909,1.053H6.455V39.895A1.978,1.978,0,0,0,8.273,42h7.273a1.978,1.978,0,0,0,1.818-2.105V27.263h7.273V39.895A1.978,1.978,0,0,0,26.455,42h7.273a1.978,1.978,0,0,0,1.818-2.105V23.053h4.545A.989.989,0,0,0,41,22a1.11,1.11,0,0,0-.369-.846L22.3,2.638l-.011-.013A1.7,1.7,0,0,0,21,2Z" transform="translate(-0.5 -1.5)" fill="none" stroke="#1f1f1f" stroke-width="1"/>
</svg>
